<?xml version="1.0" encoding="utf-8"?>
<!-- Generator: Adobe Illustrator 19.2.1, SVG Export Plug-In . SVG Version: 6.00 Build 0)  -->
<svg version="1.1" id="Layer_1" xmlns="http://www.w3.org/2000/svg" xmlns:xlink="http://www.w3.org/1999/xlink" x="0px" y="0px"
	 viewBox="0 0 139.7 40.3" enable-background="new 0 0 139.7 40.3" xml:space="preserve">
<g>
	<path fill="#FFFFFF" d="M16.6,16.1c0-0.4,0-4.8,0-6.7c0-0.5-0.1-0.9-0.1-0.9s0.5,0.1,0.9,0.1c0.5,0,5,0,5,0c3.8,0,6.1,0.6,6.1,4.1
		c0,2.3-1.4,4.3-5.9,4.3c0,0-4.7,0-5.2,0C17,17,16.6,17,16.6,17S16.6,16.6,16.6,16.1z M16.6,31.4c0-0.1,0-5.6,0-7.7
		c0-0.5-0.1-0.9-0.1-0.9s0.5,0.1,0.9,0.1c0.5,0,4.3,0,4.3,0c3.4,0,7.5,0,7.5,4.7c0,3.5-3,4.7-7,4.7c0,0-4.7,0-4.8,0
		c-0.5,0-0.9,0.1-0.9,0.1S16.6,31.9,16.6,31.4z M4.4,4.5l0,32.1c0,1,0.1,1.4-0.7,1.9C3,38.9,2.3,39,1.1,39.2c0,0,0,0,0,0
		c-0.1,0-0.1,0.5,0,0.5c0.1,0,26,0,26,0c11,0,15.6-4.3,15.6-11.1c0-5-2.3-8.1-7-9.2c-0.1,0-0.1-0.1,0-0.1c2.9-0.9,5.7-3.1,5.7-8.3
		c0-7.1-4.8-9.5-15.2-9.5h-25C1,1.4,1,1.8,1.1,1.9c0,0,0,0,0,0C2.3,2.1,3,2.2,3.7,2.6C4.5,3.1,4.4,3.4,4.4,4.5z"/>
	<path fill="#FFFFFF" d="M135.3,4.5c0-1-0.1-1.4,0.7-1.9c0.7-0.4,1.5-0.5,2.7-0.7c0,0,0,0,0,0c0.1,0,0.1-0.5,0-0.5l-19.2,0
		c-0.1,0-0.1,0.4,0,0.5c0,0,0,0,0,0c1.2,0.2,1.8,0.3,2.5,0.7c0.7,0.5,0.7,0.8,0.7,1.9v19.3c0,4.4-2.5,7.8-7.5,7.8
		c-5,0-7.5-3.4-7.5-7.8l0-19.3c0-1-0.1-1.4,0.7-1.9c0.7-0.4,1.3-0.6,2.5-0.7c0,0,0,0,0,0c0.1,0,0.1-0.5,0-0.5l-18.1,0
		c-0.1,0-0.1,0.5,0,0.5c0,0,0,0,0,0c0.7,0,1.1,0.1,1.5,0.4c0.6,0.5,0.7,1.1,0.7,2.2l0,19c0,9.1,5,16.9,20.2,16.9
		c15.2,0,20.2-7.8,20.2-16.9V4.5z"/>
	<path fill="#FFFFFF" d="M77.3,39.7c0.1,0,0.1-0.4,0-0.5c0,0,0,0,0,0c-1.2-0.2-1.9-0.3-2.7-0.7c-0.7-0.5-0.7-0.8-0.7-1.9V24.4
		L87.2,4.7c0.7-1.1,1.2-1.6,1.8-2.1c0.1-0.1,0.3-0.2,0.5-0.3C90,2,90.2,1.9,90.9,1.9c0,0,0,0,0,0c0.1,0,0.2-0.5,0-0.5l-17.9,0
		c-0.1,0-0.1,0.5,0,0.5c0,0,0,0,0,0c0.9,0,1.9,0,1.8,1.3c-0.1,1.2-5.3,8.7-7.1,11.5c-0.3,0.4-0.5,0.8-0.6,1.3
		c-0.1-0.5-0.4-1-0.6-1.3c-2.6-3.8-6.9-10-7.1-11.5c-0.1-1.3,0.9-1.3,1.8-1.3c0,0,0,0,0,0c0.1,0,0.2-0.5,0-0.5l-18.8,0
		c-0.1,0-0.1,0.4,0,0.5c0,0,0,0,0,0c0.8,0.1,1.2,0,2.2,0.5c0.1,0.1,0.4,0.2,0.5,0.3c0.6,0.5,1,1,1.7,2l13.2,19.6l0,12.3
		c0,1,0.1,1.4-0.7,1.9c-0.7,0.4-1.5,0.5-2.7,0.7c0,0,0,0,0,0c-0.1,0-0.1,0.5,0,0.5L77.3,39.7z"/>
</g>
</svg>
