<svg height="1000" width="1000" xmlns="http://www.w3.org/2000/svg"><path fill="rgb(256,256,256)" d="M500 0q101.6 0 194.2 39.6t159.6 106.6 106.6 159.6T1000 500q0 101 -39.3 193.6T854.4 853.2 694.8 960.1 500 1000 305.2 960.4 145.9 853.5 39.6 693.9 0 500 39.6 305.8 146.2 146.2 305.8 39.6 500 0zm345.4 753.9Q928.6 639.5 928.6 500q0 -87.1 -34.1 -166.3T803 197 666.3 105.5 500 71.4t-166.3 34.1T197 197t-91.5 136.7T71.4 500q0 139.5 83.2 253.9Q191.4 571.4 325.3 571.4q73.1 71.5 174.7 71.5t174.7 -71.5q133.9 0 170.7 182.5zm-131.1 -361q0 -88.8 -62.8 -151.5T500 178.6t-151.5 62.8 -62.8 151.5 62.8 151.5T500 607.1t151.5 -62.7 62.8 -151.5z"/></svg>