<?xml version="1.0" encoding="utf-8"?>
<!-- Generator: Adobe Illustrator 19.2.1, SVG Export Plug-In . SVG Version: 6.00 Build 0)  -->
<svg version="1.1" id="Layer_1" xmlns="http://www.w3.org/2000/svg" xmlns:xlink="http://www.w3.org/1999/xlink" x="0px" y="0px"
	 viewBox="0 0 1223.9 108.2" style="enable-background:new 0 0 1223.9 108.2;" xml:space="preserve">
<style type="text/css">
	.st0{fill:#FFFFFF;}
</style>
<g>
	<path class="st0" d="M53.1,72.9c-2.7,0-4.1-0.1-6.3-0.1c-2.3,0-5,0.1-7.8,0.1c-0.2,0-0.2-0.6,0.1-0.6c2.5-0.2,3.8-0.4,4.6-0.9
		c0.8-0.4,1.3-1.8,1.3-14v-9c0-12.1-0.5-13.5-1.3-14c-0.7-0.4-2.1-0.6-4.6-0.9c-0.2-0.1-0.2-0.6-0.1-0.6c2.8,0,5.5,0.1,7.8,0.1
		c2.3,0,3.6-0.1,6.3-0.1c8.2,0,11.7,4.9,11.7,8.7c0,3.8-2.6,6.9-6.5,8.9c6.6,1.5,10.2,5.3,10.2,10.5C68.5,67.1,63.9,72.9,53.1,72.9z
		 M53,34.3c-2,0-3.8,0.2-3.9,0.5c-0.2,0.2-0.4,2.8-0.4,10.1c0,3.6,0.1,5.4,0.2,5.5c0.2,0.2,1.8,0.4,4.2,0.4c4.9,0,7.4-3.1,7.4-7.8
		C60.4,37,56.4,34.3,53,34.3z M52.4,52c-2,0-3.4,0.1-3.5,0.2c-0.1,0.1-0.2,1.5-0.2,8.7c0,6.1,0.3,9.1,0.7,9.6
		c0.4,0.6,2.8,1.1,5.5,1.1c5,0,9.1-3.3,9.1-9C64,56.1,59,52,52.4,52z"/>
	<path class="st0" d="M121.9,72.8c-3.8,0-5.5-0.5-7.9-2.1c-3.1-2.2-6.5-6.8-11.4-15.2c-3.1,0.1-5.6,0.1-8-0.1v2
		c0,12.1,0.6,13.5,1.4,14c0.8,0.4,2.6,0.6,5.3,0.9c0.3,0.1,0.3,0.6,0.1,0.6c-3,0-13.2,0-16.1,0c-0.2,0-0.2-0.6,0.1-0.6
		c2.4-0.2,3.5-0.4,4.2-0.9c0.7-0.4,1.3-1.8,1.3-14v-9c0-12.1-0.6-13.5-1.3-14c-0.7-0.4-1.8-0.6-4.2-0.9c-0.2-0.1-0.2-0.6-0.1-0.6
		c2.7,0,5.2,0.1,7.5,0.1c2.3,0,4.7-0.1,7.4-0.1c9.2,0,13.1,5.1,13.1,9.8c0,4.9-3.1,8.7-7.4,11.3c8.2,12.3,13.3,17.6,17.6,17.6
		c0.6,0,1.4,0,1.8-0.1c0.2,0,0.2,0.7,0.1,0.7C124.2,72.7,123.3,72.8,121.9,72.8z M100.1,34.5c-2.1,0-4.7,0.3-4.9,0.6
		c-0.2,0.4-0.7,4.6-0.7,13.5c0,3.7,0.1,4.9,0.4,5.1c0.5,0.4,2.9,0.7,5.8,0.7c5,0,8.1-4.4,8.1-9.2C108.8,39.3,105.9,34.5,100.1,34.5z
		"/>
	<path class="st0" d="M134.6,72.9c-0.2,0-0.2-0.6,0.1-0.6c2.4-0.2,3.9-0.4,4.7-0.9c0.8-0.4,1.3-1.8,1.3-14v-9
		c0-12.1-0.5-13.5-1.3-14c-0.7-0.4-2.3-0.6-4.7-0.9c-0.3-0.1-0.3-0.6-0.1-0.6c3,0,13.1,0,16,0c0.2,0,0.2,0.6-0.1,0.6
		c-2.4,0.2-4,0.4-4.7,0.9c-0.7,0.4-1.3,1.8-1.3,14v9c0,12.1,0.6,13.5,1.3,14c0.7,0.4,2.3,0.6,4.7,0.9c0.2,0.1,0.2,0.6,0.1,0.6
		C147.7,72.9,137.6,72.9,134.6,72.9z"/>
	<path class="st0" d="M205.6,54.6c-2.4,0.3-3.2,0.4-3.9,0.9c-0.5,0.4-0.9,1.6-0.7,13.8v0.6c-3.4,2-8.1,3.4-13.2,3.4
		c-11.7,0-21.3-8.9-21.3-19.8c0-10.5,7.4-20.8,21.1-20.8c6.5,0,10.1,2.2,12.2,1.7c0.3-0.1,0.4,0.1,0.4,0.2c0.1,2.2,0.3,5.5,0.3,8.9
		c0,0.3-0.7,0.3-0.7-0.1c-0.2-1.7-1.1-3.7-2.4-4.9c-2.2-2.1-6.3-4.3-10.5-4.3c-11.1,0-16,8.8-16,17.5c0,10.3,7.3,19.8,19,19.8
		c2.7,0,5.5-0.6,7.3-1.4c-0.1-12.9-0.4-14.3-0.9-14.5c-0.7-0.4-2.3-0.6-4.7-0.9c-0.3,0-0.3-0.6-0.1-0.6c3,0,11.4,0,14.3,0
		C205.8,54,205.9,54.6,205.6,54.6z"/>
	<path class="st0" d="M249.7,72.9c-0.2,0-0.2-0.6,0.1-0.6c2.4-0.2,3.4-0.4,4.2-0.9c0.7-0.4,1.3-1.8,1.3-14v-4.1h-23.9v4.1
		c0,12.1,0.5,13.5,1.3,14c0.7,0.4,1.8,0.6,4.2,0.9c0.2,0.1,0.2,0.6,0.1,0.6c-2.9,0-12.1,0-14.9,0c-0.2,0-0.2-0.6,0.1-0.6
		c2.4-0.2,3.5-0.4,4.2-0.9c0.7-0.4,1.3-1.8,1.3-14v-9c0-12.1-0.6-13.5-1.3-14c-0.7-0.4-1.8-0.6-4.2-0.9c-0.2-0.1-0.2-0.6-0.1-0.6
		c2.9,0,12.1,0,14.9,0c0.2,0,0.2,0.6-0.1,0.6c-2.4,0.2-3.4,0.4-4.2,0.9c-0.8,0.4-1.3,1.8-1.3,14v3.3h23.9v-3.3
		c0-12.1-0.6-13.5-1.3-14c-0.8-0.4-1.8-0.6-4.2-0.9c-0.2-0.1-0.2-0.6-0.1-0.6c2.9,0,12.1,0,14.9,0c0.2,0,0.2,0.6-0.1,0.6
		c-2.4,0.2-3.4,0.4-4.2,0.9c-0.7,0.4-1.3,1.8-1.3,14v9c0,12.1,0.6,13.5,1.3,14c0.8,0.4,1.8,0.6,4.2,0.9c0.2,0.1,0.2,0.6,0.1,0.6
		C261.7,72.9,252.6,72.9,249.7,72.9z"/>
	<path class="st0" d="M301.8,72.9c-0.2,0-0.2-0.6,0-0.6c1.9-0.2,3.4-0.2,3.4-1.2c0-1-1.2-4.4-4.9-13.7l-0.1-0.2h-12.5l-0.1,0.2
		c-3.1,8.3-4.2,12.1-4.2,13.3c0,1.1,1.4,1.2,3.9,1.5c0.2,0.1,0.2,0.6,0,0.6c-1.8,0-8.7,0-11.6,0c-0.2,0-0.3-0.6,0-0.6
		c1.8-0.2,3-0.4,3.9-1c0.6-0.4,1.7-1.7,6.1-13.8l3.3-9c1.9-5.2,3.9-10.5,5.4-15.3c0.2-0.4,0.7-0.4,0.8,0c1.8,5.4,3.4,9.7,5.7,15.3
		l3.4,9c4.8,12.1,5.6,13.4,6.5,14c1,0.6,2,0.7,3.7,0.9c0.2,0.1,0.2,0.6,0,0.6C311.7,72.9,304.7,72.9,301.8,72.9z M294,40.1
		l-5.7,15.7h11.4L294,40.1z"/>
	<path class="st0" d="M363.3,72.9c-0.2,0-0.3-0.6,0-0.6c1.7-0.2,3-0.2,3.6-0.7c0.6-0.4,1-2-0.4-14.1L365.1,43L351,73.1
		c-0.1,0.1-0.4,0.2-0.6-0.1l-15.2-29.8l-1,13.9c-1.1,12.4-0.3,13.8,0.4,14.3c0.6,0.5,2.3,0.6,3.9,0.8c0.2,0.1,0.2,0.6,0,0.6
		c-3,0-10,0-13,0c-0.2,0-0.1-0.6,0.1-0.6c2.5-0.2,3.8-0.4,4.5-1c0.5-0.4,1.3-1.7,2.2-13.8l0.6-9c0.3-5.2,0.7-10.5,0.8-15.3
		c0.1-0.3,0.7-0.4,0.8-0.1l17.3,34.2l16-34.2c0.1-0.2,0.7-0.2,0.7,0.1c0.3,5.4,0.6,9.7,1.2,15.3l0.9,9c1.4,12.1,1.7,13.5,2.6,14
		c0.8,0.4,1.8,0.6,4.3,0.9c0.2,0.1,0.4,0.6,0.2,0.6C374.7,72.9,366.1,72.9,363.3,72.9z"/>
	<path class="st0" d="M447.2,34.2c-0.6,0.3-1.4,1.2-5.8,8.6l-3.3,5.5c-1.5,2.4-3,4.8-4.3,7.1v2c0,12.2,0.6,13.6,1.3,14
		c0.7,0.4,2.3,0.6,4.7,0.9c0.2,0.1,0.2,0.6,0.1,0.6c-2.9,0-13.1,0-16,0c-0.2,0-0.2-0.6,0.1-0.6c2.4-0.2,4-0.4,4.7-0.9
		c0.7-0.4,1.3-1.8,1.3-14v-1.8c-1.4-2.4-2.7-4.7-4.4-7.4l-3.4-5.5c-4.7-7.4-5.2-8.4-6-8.7c-1-0.4-1.9-0.4-3.6-0.5
		c-0.3,0-0.2-0.6,0-0.6c2.9,0,10.2,0,13.2,0c0.2,0,0.2,0.6,0,0.6c-1.4,0.1-3,0.1-3.4,0.4c-0.5,0.3,0,1.3,4.5,9.4l6.1,10.3l6.8-11.3
		c4.4-6.9,4.2-7.9,3.8-8.2c-0.5-0.2-2.2-0.4-3.8-0.5c-0.2,0-0.2-0.6,0-0.6c1.8,0,8.7,0,11.7,0c0.2,0,0.2,0.6,0,0.6
		C449.4,33.7,448.1,33.8,447.2,34.2z"/>
	<path class="st0" d="M481.7,73.3c-11.3,0-20-8.7-20-19.8c0-10.6,8.4-20.8,20.9-20.8c11.3,0,20,8.7,20,19.8
		C502.6,63.1,494.3,73.3,481.7,73.3z M481.4,34.4c-11,0-15.3,9.3-15.3,17.3c0,10,7,19.9,16.8,19.9c10.9,0,15.2-9.3,15.2-17.3
		C498.2,44.3,491.2,34.4,481.4,34.4z"/>
	<path class="st0" d="M555,34.7c-0.5,0.4-1,1.7-1,13.8v10.3c0,7.4-5.5,14.5-15.2,14.5c-9.6,0-15.4-6.3-15.4-14.3V48.5
		c0-12.1-0.6-13.5-1.3-14c-0.7-0.4-1.8-0.6-4.2-0.9c-0.2-0.1-0.2-0.6-0.1-0.6c3,0,12.4,0,15.2,0c0.2,0,0.2,0.6-0.1,0.6
		c-2.4,0.2-3.7,0.4-4.4,0.9c-0.8,0.4-1.3,1.8-1.3,14v9.3c0,7.6,4.9,13,13,13c7.6,0,11.6-5.5,11.6-12.4v-10c0-12.1-0.6-13.3-1-13.8
		c-0.7-0.6-2.2-0.8-4.6-1c-0.3-0.1-0.2-0.6,0-0.6c2.9,0,10.2,0,13.1,0c0.2,0,0.2,0.6,0,0.6C556.9,33.9,555.7,34.1,555,34.7z"/>
	<path class="st0" d="M614.1,35c-0.5,0.5-1.2,1.4-1.1,13.5l0.1,9c0.1,5.2,0,10.6,0.3,15.4c0.1,0.3-0.7,0.4-1,0.1l-30.5-32.5l0.2,17
		c0.1,11.2,0.9,12.9,1.7,13.6c0.6,0.4,2.8,1,4.5,1c0.2,0,0.2,0.8,0,0.8c-3.2,0-11.3,0-14.1,0c-0.2,0-0.2-0.7,0-0.8
		c2.5-0.2,3.9-0.6,4.5-1.2c0.5-0.5,1.2-1.4,1-13.5l-0.1-9c-0.1-5.2-0.1-10.6-0.4-15.4c0-0.3,0.9-0.4,1.1-0.1l30.6,32.7l-0.2-17.2
		c-0.1-12.1-1-13-1.7-13.6c-0.7-0.6-2.3-0.9-4.9-1c-0.2-0.1-0.2-0.8,0-0.8c3,0,11.4,0,14.3,0c0.2,0,0.2,0.7,0,0.8
		C616,34.1,614.8,34.5,614.1,35z"/>
	<path class="st0" d="M674.4,54.6c-2.4,0.3-3.2,0.4-3.9,0.9c-0.5,0.4-0.9,1.6-0.7,13.8v0.6c-3.4,2-8.1,3.4-13.2,3.4
		c-11.7,0-21.3-8.9-21.3-19.8c0-10.5,7.4-20.8,21.1-20.8c6.5,0,10.1,2.2,12.2,1.7c0.3-0.1,0.4,0.1,0.4,0.2c0.1,2.2,0.3,5.5,0.3,8.9
		c0,0.3-0.7,0.3-0.7-0.1c-0.2-1.7-1.1-3.7-2.4-4.9c-2.2-2.1-6.3-4.3-10.5-4.3c-11.1,0-16,8.8-16,17.5c0,10.3,7.3,19.8,19,19.8
		c2.7,0,5.5-0.6,7.3-1.4c-0.1-12.9-0.4-14.3-0.9-14.5c-0.7-0.4-2.3-0.6-4.7-0.9c-0.3,0-0.3-0.6-0.1-0.6c3,0,11.4,0,14.3,0
		C674.6,54,674.7,54.6,674.4,54.6z"/>
	<path class="st0" d="M752.4,34.7c-0.5,0.4-1,1.7-1,13.8v10.3c0,7.4-5.5,14.5-15.2,14.5c-9.6,0-15.4-6.3-15.4-14.3V48.5
		c0-12.1-0.6-13.5-1.3-14c-0.7-0.4-1.8-0.6-4.2-0.9c-0.2-0.1-0.2-0.6-0.1-0.6c3,0,12.4,0,15.2,0c0.2,0,0.2,0.6-0.1,0.6
		c-2.4,0.2-3.7,0.4-4.4,0.9c-0.8,0.4-1.3,1.8-1.3,14v9.3c0,7.6,4.9,13,13,13c7.6,0,11.6-5.5,11.6-12.4v-10c0-12.1-0.6-13.3-1-13.8
		c-0.7-0.6-2.2-0.8-4.6-1c-0.3-0.1-0.2-0.6,0-0.6c2.9,0,10.2,0,13.1,0c0.2,0,0.2,0.6,0,0.6C754.3,33.9,753.1,34.1,752.4,34.7z"/>
	<path class="st0" d="M811.5,35c-0.5,0.5-1.2,1.4-1.1,13.5l0.1,9c0.1,5.2,0,10.6,0.3,15.4c0.1,0.3-0.7,0.4-1,0.1l-30.5-32.5l0.2,17
		c0.1,11.2,0.9,12.9,1.7,13.6c0.6,0.4,2.8,1,4.5,1c0.2,0,0.2,0.8,0,0.8c-3.2,0-11.3,0-14.1,0c-0.2,0-0.2-0.7,0-0.8
		c2.5-0.2,3.9-0.6,4.5-1.2c0.5-0.5,1.2-1.4,1-13.5l-0.1-9c-0.1-5.2-0.1-10.6-0.4-15.4c0-0.3,0.9-0.4,1.1-0.1l30.6,32.7l-0.2-17.2
		c-0.1-12.1-1-13-1.7-13.6c-0.7-0.6-2.3-0.9-4.9-1c-0.2-0.1-0.2-0.8,0-0.8c3,0,11.4,0,14.3,0c0.2,0,0.2,0.7,0,0.8
		C813.4,34.1,812.2,34.5,811.5,35z"/>
	<path class="st0" d="M833.6,72.9c-0.2,0-0.2-0.6,0.1-0.6c2.4-0.2,3.9-0.4,4.7-0.9c0.8-0.4,1.3-1.8,1.3-14v-9
		c0-12.1-0.5-13.5-1.3-14c-0.7-0.4-2.3-0.6-4.7-0.9c-0.3-0.1-0.3-0.6-0.1-0.6c3,0,13.1,0,16,0c0.2,0,0.2,0.6-0.1,0.6
		c-2.4,0.2-4,0.4-4.7,0.9c-0.7,0.4-1.3,1.8-1.3,14v9c0,12.1,0.6,13.5,1.3,14c0.7,0.4,2.3,0.6,4.7,0.9c0.2,0.1,0.2,0.6,0.1,0.6
		C846.7,72.9,836.5,72.9,833.6,72.9z"/>
	<path class="st0" d="M901.6,34.7c-0.6,0.5-1.7,1.7-6.6,13.8l-3.6,9c-2,5.2-4.2,10.5-5.8,15.3c-0.2,0.4-1.4,0.4-1.5,0
		c-1.9-5.3-3.6-9.7-5.8-15.3l-3.6-9c-4.5-10.8-5.6-13.2-6.6-13.8c-1-0.6-2.2-0.8-4.1-1c-0.2-0.1-0.2-0.6,0-0.6c2.5,0,10.9,0,13.8,0
		c0.2,0,0.3,0.6,0,0.6c-2.3,0.2-3.8,0.7-3.8,1.7c0,1.1,1,3.9,4.8,13.2l7,18.4l7.3-18.4c3.3-8.4,4.2-11.5,4.2-12.8c0-1.1-1.4-1.8-4-2
		c-0.2-0.1-0.2-0.6,0-0.6c1.8,0,9.7,0,11.9,0c0.2,0,0.3,0.6,0,0.6C903.4,33.9,902.4,34.1,901.6,34.7z"/>
	<path class="st0" d="M945.1,72.2c-0.3,0.4-2.2,0.7-4.7,0.7c-3.7,0-5.6-0.2-10.8-0.2c-3.9,0-5.9,0.1-10.3,0.1
		c-0.2,0-0.2-0.6,0.1-0.6c2.4-0.2,3.8-0.4,4.6-0.9c0.8-0.4,1.3-1.8,1.3-14v-9c0-12.1-0.5-13.5-1.3-14c-0.7-0.4-2.2-0.6-4.6-0.9
		c-0.2-0.1-0.2-0.6-0.1-0.6c4.8,0.1,11.9,0.1,15.9,0.1c5.2,0,7.1-0.1,9-0.3c0.2,0,0.4,0.1,0.4,0.2c-0.2,2.2-0.3,4.6-0.7,7.9
		c-0.1,0.2-0.7,0.2-0.7-0.2c0-1.6-0.1-3.1-1-4.1c-1-1.1-2.9-2-7.3-2c-2.4,0-5,0-5.6,0.1c-0.2,0.6-0.2,3.6-0.2,7.4v9.1h5.4
		c5.8,0,6.6-0.9,7-3.1c0-0.2,0.7-0.2,0.7,0c-0.1,1.7-0.3,7.2-0.3,8.9c0,0.2-0.7,0.2-0.7-0.1c0-1.2-0.3-2.4-0.9-3
		c-0.6-0.6-1.5-1.2-5.8-1.2h-5.4v4.4c0,7.9,0.4,12.3,1,12.9c0.5,0.6,2.8,0.8,6.3,0.8c3.9,0,6-1.1,7.1-2.3c0.9-0.9,1.5-2.5,2-4.4
		c0.1-0.4,0.7-0.1,0.7,0.2C945.8,68.7,945.2,72.1,945.1,72.2z"/>
	<path class="st0" d="M1000.8,72.8c-3.8,0-5.5-0.5-7.9-2.1c-3.1-2.2-6.5-6.8-11.4-15.2c-3.1,0.1-5.6,0.1-8-0.1v2
		c0,12.1,0.6,13.5,1.4,14c0.8,0.4,2.6,0.6,5.3,0.9c0.3,0.1,0.3,0.6,0.1,0.6c-3,0-13.2,0-16.1,0c-0.2,0-0.2-0.6,0.1-0.6
		c2.4-0.2,3.5-0.4,4.2-0.9c0.7-0.4,1.3-1.8,1.3-14v-9c0-12.1-0.6-13.5-1.3-14c-0.7-0.4-1.8-0.6-4.2-0.9c-0.2-0.1-0.2-0.6-0.1-0.6
		c2.7,0,5.2,0.1,7.5,0.1c2.3,0,4.7-0.1,7.4-0.1c9.2,0,13.1,5.1,13.1,9.8c0,4.9-3.1,8.7-7.4,11.3c8.2,12.3,13.3,17.6,17.6,17.6
		c0.6,0,1.4,0,1.8-0.1c0.2,0,0.2,0.7,0.1,0.7C1003.1,72.7,1002.2,72.8,1000.8,72.8z M979,34.5c-2.1,0-4.7,0.3-4.9,0.6
		c-0.2,0.4-0.7,4.6-0.7,13.5c0,3.7,0.1,4.9,0.4,5.1c0.5,0.4,2.9,0.7,5.8,0.7c5,0,8.1-4.4,8.1-9.2C987.7,39.3,984.8,34.5,979,34.5z"
		/>
	<path class="st0" d="M1023.8,73.2c-6.2,0-9.4-3.4-9.5-3.6c-0.1-0.2-0.4-5.4,0-8.5c-0.1-0.3,0.7-0.3,0.7,0.1c0.1,2.3,1,4.8,1.8,6.1
		c1.8,2.7,4.2,4.4,7.8,4.4c4.8,0,7.7-3.4,7.7-7.9c0-9.2-16.3-10.7-16.3-20.8c0-6.3,4.9-10.3,10.6-10.3c4.7,0,5.5,1.7,7.7,1.1
		c0.2-0.1,0.4,0.1,0.4,0.2c0,2.2,0.1,5,0,8.3c-0.1,0.2-0.7,0.2-0.7-0.1c-0.1-2-0.9-4.4-2.1-5.7c-1.4-1.5-3.4-2.4-5.6-2.4
		c-3.9,0-6.8,2.9-6.8,6.7c0,7.7,17,10.9,17,20.9C1036.4,69.3,1029.9,73.2,1023.8,73.2z"/>
	<path class="st0" d="M1055.4,72.9c-0.2,0-0.2-0.6,0.1-0.6c2.4-0.2,3.9-0.4,4.7-0.9c0.8-0.4,1.3-1.8,1.3-14v-9
		c0-12.1-0.5-13.5-1.3-14c-0.7-0.4-2.3-0.6-4.7-0.9c-0.3-0.1-0.3-0.6-0.1-0.6c3,0,13.1,0,16,0c0.2,0,0.2,0.6-0.1,0.6
		c-2.4,0.2-4,0.4-4.7,0.9c-0.7,0.4-1.3,1.8-1.3,14v9c0,12.1,0.6,13.5,1.3,14c0.7,0.4,2.3,0.6,4.7,0.9c0.2,0.1,0.2,0.6,0.1,0.6
		C1068.5,72.9,1058.3,72.9,1055.4,72.9z"/>
	<path class="st0" d="M1123.7,41.6c-0.1,0.2-0.7,0.2-0.7-0.1c0-1.5-0.3-3.9-1.2-4.7c-1.1-1.2-4.1-1.8-10.6-1.8c-1.4,0-2.2,0-2.8,0.1
		c-0.2,0.6-0.2,3.6-0.2,7.4v15c0,12.1,0.6,13.5,1.3,14c0.7,0.4,2.3,0.6,4.7,0.9c0.2,0.1,0.2,0.6,0.1,0.6c-3,0-13,0-16,0
		c-0.2,0-0.2-0.6,0.1-0.6c2.4-0.2,3.9-0.4,4.7-0.9c0.7-0.4,1.3-1.8,1.3-14v-15c0-3.9-0.1-6.8-0.2-7.4c-0.6-0.1-1.7-0.1-3.1-0.1
		c-6.3,0-9.2,0.6-10.7,1.8c-0.9,0.9-1.5,3.4-1.8,4.9c0,0.3-0.7,0.1-0.7-0.1c0.4-3.1,0.7-6.5,0.9-8.6c0-0.1,0.1-0.2,0.4-0.2
		c2.2,0.4,6.5,0.7,17.2,0.7c14.7,0,16.4-0.4,17.5-0.8c0.2-0.1,0.4,0.1,0.4,0.2C1124.2,35.1,1124.1,38.4,1123.7,41.6z"/>
	<path class="st0" d="M1172.8,34.2c-0.6,0.3-1.4,1.2-5.8,8.6l-3.3,5.5c-1.5,2.4-3,4.8-4.3,7.1v2c0,12.2,0.6,13.6,1.3,14
		c0.7,0.4,2.3,0.6,4.7,0.9c0.2,0.1,0.2,0.6,0.1,0.6c-2.9,0-13.1,0-16,0c-0.2,0-0.2-0.6,0.1-0.6c2.4-0.2,4-0.4,4.7-0.9
		c0.7-0.4,1.3-1.8,1.3-14v-1.8c-1.4-2.4-2.7-4.7-4.4-7.4l-3.4-5.5c-4.7-7.4-5.2-8.4-6-8.7c-1-0.4-1.9-0.4-3.6-0.5
		c-0.3,0-0.2-0.6,0-0.6c2.9,0,10.2,0,13.2,0c0.2,0,0.2,0.6,0,0.6c-1.4,0.1-3,0.1-3.4,0.4c-0.5,0.3,0,1.3,4.5,9.4l6.1,10.3l6.8-11.3
		c4.4-6.9,4.2-7.9,3.8-8.2c-0.5-0.2-2.2-0.4-3.8-0.5c-0.2,0-0.2-0.6,0-0.6c1.8,0,8.7,0,11.7,0c0.2,0,0.2,0.6,0,0.6
		C1175,33.7,1173.8,33.8,1172.8,34.2z"/>
</g>
</svg>
