<?xml version="1.0" encoding="UTF-8" standalone="no"?>
<!DOCTYPE svg PUBLIC "-//W3C//DTD SVG 1.0//EN"
	"http://www.w3.org/TR/2001/REC-SVG-20010904/DTD/svg10.dtd"><svg
   xmlns:svg="http://www.w3.org/2000/svg"
   xmlns="http://www.w3.org/2000/svg"
   version="1.0"
   width="600"
   height="611.95996"
   id="svg2198">
  <defs
     id="defs2200" />
  <g
     transform="translate(-277.14275,-3.3922404)"
     id="layer1">
    <path
       d="M 577.14274,3.3922404 L 521.39108,65.279638 C 540.93548,93.300637 548.23908,126.99884 548.23908,143.92364 C 531.63848,114.64924 513.40228,106.19644 495.4463,94.089837 L 459.53476,133.95704 C 508.37198,150.90044 538.2723,208.70783 538.2723,268.50843 C 538.27232,297.41203 528.30552,366.18303 459.53476,363.19283 L 459.53476,362.91263 C 408.80909,356.90943 361.16789,297.96483 356.87697,233.62483 C 352.59883,169.47623 379.80055,107.04664 424.65105,55.219439 L 424.49531,55.219439 C 342.48137,104.01184 285.56993,191.00623 278.01483,292.27303 C 277.82969,294.75463 277.67315,297.25003 277.54765,299.74803 C 277.54497,299.80003 277.55029,299.85183 277.54765,299.90383 C 277.42181,302.43343 277.30011,304.98903 277.23619,307.53463 C 277.16989,310.12723 277.14275,312.74383 277.14275,315.35223 C 277.14275,480.95242 411.54271,615.35222 577.14274,615.35222 C 742.74275,615.35222 877.14275,480.95242 877.14275,315.35223 C 877.14275,307.58983 876.85055,299.88783 876.27055,292.27303 C 868.71555,191.00623 811.80415,104.01184 729.79015,55.219439 L 729.63435,55.219439 C 774.48495,107.04664 801.68655,169.47623 797.40855,233.62483 C 793.11755,297.96483 745.47635,356.90943 694.75076,362.91263 L 694.75076,363.19283 C 625.97996,366.18303 616.01316,297.41203 616.01316,268.50843 C 616.01316,208.70783 645.91356,150.90044 694.75076,133.95704 L 658.83916,94.089837 C 640.88316,106.19644 622.64696,114.64924 606.04636,143.92364 C 606.04636,126.99884 613.34996,93.300637 632.89436,65.279638 L 577.14274,3.3922404 z "
       style="opacity:1;fill:#ff0000;fill-opacity:1;stroke:none;stroke-width:3;stroke-miterlimit:4;stroke-dasharray:none;stroke-dashoffset:1.8;stroke-opacity:1;display:inline"
       id="path8305" />
  </g>
</svg>
