<svg height="1000" width="1000" xmlns="http://www.w3.org/2000/svg"><path fill="#002e5d" d="M849.9 747.2Q837.6 660.7 801.1 603.5t-103 -66.1q-37.4 41.3 -89 64.4T500 625 390.9 601.8t-89 -64.4q-66.4 8.9 -103 66.1t-48.8 143.7q59.2 83.7 151.2 132.5T500 928.6t198.7 -48.9T849.9 747.2zM714.3 357.1q0 -88.7 -62.8 -151.5T500 142.9t-151.5 62.7 -62.8 151.5 62.8 151.5T500 571.4t151.5 -62.8 62.8 -151.5zM1000 500q0 101.6 -39.6 193.9T854.1 853.5 694.8 960.4 500 1000q-101.6 0 -194.2 -39.6T146.2 853.8 39.6 694.2 0 500 39.6 305.8 146.2 146.2 305.8 39.6 500 0t194.2 39.6 159.6 106.6 106.6 159.6T1000 500z"/></svg>